<?xml version="1.0" encoding="UTF-8" standalone="no"?>
<svg width="200px" height="33px" viewBox="0 0 200 33" version="1.1" xmlns="http://www.w3.org/2000/svg" xmlns:xlink="http://www.w3.org/1999/xlink">
    <!-- Generator: Sketch 49.1 (51147) - http://www.bohemiancoding.com/sketch -->
    <title>Group</title>
    <desc>Created with Sketch.</desc>
    <defs></defs>
    <g id="Page-1" stroke="none" stroke-width="1" fill="none" fill-rule="evenodd">
        <g id="Group" fill="#FFD912">
            <polygon id="Star" points="18 27 7.41986546 32.5623059 9.44049135 20.7811529 0.880982707 12.4376941 12.7099327 10.7188471 18 0 23.2900673 10.7188471 35.1190173 12.4376941 26.5595086 20.7811529 28.5801345 32.5623059"></polygon>
            <polygon id="Star-Copy" points="59 27 48.4198655 32.5623059 50.4404914 20.7811529 41.8809827 12.4376941 53.7099327 10.7188471 59 0 64.2900673 10.7188471 76.1190173 12.4376941 67.5595086 20.7811529 69.5801345 32.5623059"></polygon>
            <polygon id="Star-Copy-2" points="100 27 89.4198655 32.5623059 91.4404914 20.7811529 82.8809827 12.4376941 94.7099327 10.7188471 100 0 105.290067 10.7188471 117.119017 12.4376941 108.559509 20.7811529 110.580135 32.5623059"></polygon>
            <polygon id="Star-Copy-3" points="141 27 130.419865 32.5623059 132.440491 20.7811529 123.880983 12.4376941 135.709933 10.7188471 141 0 146.290067 10.7188471 158.119017 12.4376941 149.559509 20.7811529 151.580135 32.5623059"></polygon>
            <polygon id="Star-Copy-4" points="182 27 171.419865 32.5623059 173.440491 20.7811529 164.880983 12.4376941 176.709933 10.7188471 182 0 187.290067 10.7188471 199.119017 12.4376941 190.559509 20.7811529 192.580135 32.5623059"></polygon>
        </g>
    </g>
</svg>