<?xml version="1.0" standalone="yes"?>
<svg xmlns="http://www.w3.org/2000/svg" width="499" height="200">
<path style="fill:#1d1f1d; stroke:none;" d="M0 0L0 200L499 200L499 0L0 0z"/>
<path style="fill:#b99245; stroke:none;" d="M267 14L267 49C267 52.5032 268.131 58.6627 265.397 61.3966C260.776 66.0173 243.26 63 237 63C207.478 63 161.142 54.2958 150.927 92C140.477 130.577 186.573 160.369 216.91 133.535C230.782 121.265 230 104.843 230 88L211 88C211 95.6633 211.785 103.846 208.446 110.999C202.458 123.827 186.883 127.513 176.093 118.471C163.884 108.239 168.916 89.9928 183 84.1335C198.774 77.5711 223.114 82 240 82C247.028 82 256.15 80.4529 262.941 82.3179C269.458 84.1075 266.998 96.8508 267 102C267.005 116.071 272.199 129.188 284.004 137.56C296.067 146.115 315.008 146.648 328 139.676C352.594 126.478 356.234 88.7455 333.999 71.5293C320.222 60.8616 303.326 63 287 63L287 14L267 14z"/>
<path style="fill:#72664b; stroke:none;" d="M210 16L210 58C214.75 58 225.546 60.0218 229.397 56.9722C234.225 53.1484 231.003 31.9389 231 26C230.999 23.3832 231.749 18.8913 229.397 17.0278C225.546 13.9782 214.75 16 210 16z"/>
<path style="fill:#b99245; stroke:none;" d="M211 17L211 57L230 57L230 17L211 17z"/>
<path style="fill:#72664b; stroke:none;" d="M185 62L185 63L266 63L241 62L185 62M287 62L287 63L313 63L287 62M180.667 63.3333L181.333 63.6667L180.667 63.3333M316 63L316 64L319 64L316 63M177 64L178 65L177 64M320.667 64.3333L321.333 64.6667L320.667 64.3333M174 65L175 66L174 65M323 65L324 66L323 65M172 66L173 67L172 66M325 66L326 67L325 66M170 67L171 68L170 67M327 67L328 68L327 67M168 68L169 69L168 68M329 68L330 69L329 68M167 69L168 70L167 69M331 69L332 70L331 69M165 70L166 71L165 70M332 70L333 71L332 70M164 71L165 72L164 71M163 72L164 73L163 72M336 73L337 74L336 73M337 74L338 75L337 74M159 76L160 77L159 76M158 77L159 78L158 77M157 78L158 79L157 78M341 79L342 80L341 79M155 81L156 82L155 81M188 82L188 83L266 83L242 82L188 82M287 82L287 83L311 83L287 82M343 82L344 83L343 82M154 83L155 84L154 83M184 83L185 84L184 83z"/>
<path style="fill:#1d1f1d; stroke:none;" d="M287 83C287 90.5457 286.273 98.5061 287.184 106C287.657 109.882 289.134 113.866 291.558 116.957C314.224 145.859 349.212 91.9001 313 83.5293C304.902 81.6575 295.286 83 287 83z"/>
<path style="fill:#72664b; stroke:none;" d="M313.667 83.3333L314.333 83.6667L313.667 83.3333M181 84L182 85L181 84M316 84L317 85L316 84M344 84L345 85L344 84M153 85L154 86L153 85M179 85L180 86L179 85M318 85L319 86L318 85M178 86L179 87L178 86M320 86L321 87L320 86M345 86L346 87L345 86M152 87L153 88L152 87M210 87L210 105L211 105L211 88L230 88L210 87M321 87L322 88L321 87M230 88L230 108L231 108L230 88M322 88L323 89L322 88M346 88L347 89L346 88M151 89L152 90L151 89M323 89L324 90L323 89M324 90L325 91L324 90M347 91L348 92L347 91M150.333 92.6667L150.667 93.3333L150.333 92.6667M172 92L173 93L172 92M326 93L327 94L326 93M171 94L172 95L171 94M348 94L348 97L349 97L348 94M327 95L328 96L327 95M170 96L171 97L170 96M149 97L149 102L150 102L149 97M328.333 98.6667L328.667 99.3333L328.333 98.6667M169 99L170 100L169 99M168 102L168 106L169 106L168 102M149 106L149 111L150 111L149 106M348 106L348 111L349 111L348 106M328.333 107.667L328.667 108.333L328.333 107.667M169.333 108.667L169.667 109.333L169.333 108.667M209 108L210 109L209 108M287.333 108.667L287.667 109.333L287.333 108.667M170 111L171 112L170 111M208 111L209 112L208 111M229.333 111.667L229.667 112.333L229.333 111.667M267.333 111.667L267.667 112.333L267.333 111.667M288.333 111.667L288.667 112.333L288.333 111.667M327 111L328 112L327 111M150.333 113.667L150.667 114.333L150.333 113.667M171 113L172 114L171 113M207 113L208 114L207 113M326 113L327 114L326 113M289 114L290 115L289 114M347.333 114.667L347.667 115.333L347.333 114.667M228 115L229 116L228 115M268.333 115.667L268.667 116.333L268.333 115.667M290 115L291 116L290 115M325 115L326 116L325 115M173 116L174 117L173 116M324 116L325 117L324 116M151 117L152 118L151 117M174 117L175 118L174 117M204 117L205 118L204 117M323 117L324 118L323 117M346.333 117.667L346.667 118.333L346.333 117.667M175 118L176 119L175 118M227 118L228 119L227 118M269.333 118.667L269.667 119.333L269.333 118.667M152 119L153 120L152 119M321 119L322 120L321 119M178 120L179 121L178 120M200 120L201 121L200 120M226 120L227 121L226 120M320 120L321 121L320 120M345 120L346 121L345 120M180 121L181 122L180 121M198 121L199 122L198 121M270 121L271 122L270 121M296 121L297 122L296 121M319 121L320 122L319 121M153 122L154 123L153 122M182 122L183 123L182 122M196 122L197 123L196 122M225 122L226 123L225 122M298 122L299 123L298 122M317 122L318 123L317 122M344 122L345 123L344 122M154 123L155 124L154 123M185 123L185 124L189 124L185 123M191 123L191 124L194 124L191 123M271 123L272 124L271 123M300 123L301 124L300 123M315 123L316 124L315 123M224 124L225 125L224 124M303.667 124.333L304.333 124.667L303.667 124.333M311.667 124.333L312.333 124.667L311.667 124.333M343 124L344 125L343 124M155 125L156 126L155 125M223 125L224 126L223 125M273 126L274 127L273 126M222 127L223 128L222 127M341 127L342 128L341 127M157 128L158 129L157 128M221 128L222 129L221 128M220 129L221 130L220 129M275 129L276 130L275 129M276 130L277 131L276 130M277 131L278 132L277 131M338 131L339 132L338 131M337 132L338 133L337 132M336 133L337 134L336 133M215 134L216 135L215 134M335 134L336 135L335 134M164 135L165 136L164 135M214 135L215 136L214 135M281 135L282 136L281 135M334 135L335 136L334 135M165 136L166 137L165 136M282 136L283 137L282 136M167 137L168 138L167 137M211 137L212 138L211 137M331 137L332 138L331 137M285 138L286 139L285 138M170 139L171 140L170 139M208 139L209 140L208 139M328 139L329 140L328 139M172 140L173 141L172 140M205.667 140.333L206.333 140.667L205.667 140.333M288 140L289 141L288 140M326 140L327 141L326 140M175 141L176 142L175 141M203 141L204 142L203 141M290 141L291 142L290 141M324 141L325 142L324 141M177.667 142.333L178.333 142.667L177.667 142.333M200 142L201 143L200 142M292.667 142.333L293.333 142.667L292.667 142.333M321 142L322 143L321 142M182 143L182 144L185 144L182 143M194 143L194 144L197 144L194 143M295.667 143.333L296.333 143.667L295.667 143.333M317.667 143.333L318.333 143.667L317.667 143.333M300 144L300 145L313 145L300 144M144 160L145 161L144 160z"/>
<path style="fill:#b6b6b5; stroke:none;" d="M144 184L145 184L145 161L149 161C149.01 174.132 161.99 174.132 162 161L166 161L166 184L167 184C167 177.668 168.487 169.228 166.682 163.149C164.194 154.766 161.002 167.274 161 170L150 170C149.998 167.274 146.806 154.766 144.318 163.149C142.513 169.228 144 177.668 144 184z"/>
<path style="fill:#72664b; stroke:none;" d="M149 160L150 161L149 160M161 160L162 161L161 160M166 160L167 161L166 160M196 160L195 162L196 160z"/>
<path style="fill:#b6b6b5; stroke:none;" d="M197 160L198 161L197 160z"/>
<path style="fill:#fcfcfc; stroke:none;" d="M196 165L201 165C200.176 160.279 196.824 160.279 196 165z"/>
<path style="fill:#b6b6b5; stroke:none;" d="M199 160L200 161L199 160z"/>
<path style="fill:#72664b; stroke:none;" d="M200 160L201 161L200 160M218 160L219 161L218 160z"/>
<path style="fill:#b6b6b5; stroke:none;" d="M218 184L219 184L219 161L228 161C214.195 155.209 218 176.135 218 184z"/>
<path style="fill:#b99245; stroke:none;" d="M228 160L229 161L228 160z"/>
<path style="fill:#72664b; stroke:none;" d="M236 160L237 161L236 160z"/>
<path style="fill:#b6b6b5; stroke:none;" d="M235 180L236 180L237 161L241 161L241 184C243.162 178.848 242.447 170.582 241.941 165.019C241.754 162.957 240.41 159.102 237.584 161.086C234.033 163.58 235.996 175.815 235 180z"/>
<path style="fill:#72664b; stroke:none;" d="M241 160L242 161L241 160z"/>
<path style="fill:#fcfcfc; stroke:none;" d="M145 161L145 184L149 184L149 175L162 175L162 184L166 184L166 161L162 161C161.955 173.791 149.045 173.791 149 161L145 161z"/>
<path style="fill:#72664b; stroke:none;" d="M201 161L202 162L201 161z"/>
<path style="fill:#fcfcfc; stroke:none;" d="M219 161L219 184L223 184L223 165C228.19 168.173 229.675 178.273 231 184L241 184L241 161L237 161L236 180L235 180L229 161L219 161z"/>
<path style="fill:#b6b6b5; stroke:none;" d="M195 162L196 163L195 162M201.333 162.667L201.667 163.333L201.333 162.667z"/>
<path style="fill:#72664b; stroke:none;" d="M229 162L230 163L229 162z"/>
<path style="fill:#b99245; stroke:none;" d="M195 163L196 164L195 163z"/>
<path style="fill:#b6b6b5; stroke:none;" d="M229 163L230 164L229 163z"/>
<path style="fill:#72664b; stroke:none;" d="M197 165L198 167L199 167L200 165L197 165z"/>
<path style="fill:#b6b6b5; stroke:none;" d="M223 165L223 184L224 184L223 165M225 165L226 166L225 165z"/>
<path style="fill:#72664b; stroke:none;" d="M230 165L231 166L230 165M178 166L179 167L178 166M225 166L226 167L225 166z"/>
<path style="fill:#b6b6b5; stroke:none;" d="M230 166L231 167L230 166z"/>
<path style="fill:#72664b; stroke:none;" d="M254 166L255 167L254 166M322 166L323 167L322 166M347 166L348 167L347 166M174 167L175 168L174 167z"/>
<path style="fill:#b6b6b5; stroke:none;" d="M175 167L176 168L175 167z"/>
<path style="fill:#fcfcfc; stroke:none;" d="M171 173C175.398 172.467 178.533 170.602 182 174C178.594 174.073 173.956 174.009 171.851 177.278C169.174 181.435 174.296 184.412 177.961 183.548C180.68 182.907 182.825 180.617 185 179C184.384 183.025 186.201 183.705 190 184C188.722 175.739 177.146 156.786 171 173z"/>
<path style="fill:#b6b6b5; stroke:none;" d="M182 167L183 168L182 167M192 167L192 172L196 172L196 179L192 179L192 180C197.585 179.068 198.629 172.868 193 171L192 167z"/>
<path style="fill:#fcfcfc; stroke:none;" d="M193 167L193 171C197.896 173.703 197.306 178.389 192 180L192 184L206 184L206 180C197.215 177.333 204.468 167.136 193 167z"/>
<path style="fill:#b6b6b5; stroke:none;" d="M200 167L201 168L200 167z"/>
<path style="fill:#72664b; stroke:none;" d="M249 167L250 168L249 167z"/>
<path style="fill:#b6b6b5; stroke:none;" d="M250 167L251 168L250 167z"/>
<path style="fill:#fcfcfc; stroke:none;" d="M258 177L248 183C252.687 182.634 256.423 181.342 259 186L247 186L247 190C251.288 190 256.88 190.898 260.852 188.991C266.588 186.237 262.027 181.84 258 181L258 180C263.293 177.881 266.144 172.532 267 167C261.291 168.208 253.087 165.198 248.282 168.858C239.447 175.588 252.814 178.532 258 177z"/>
<path style="fill:#b6b6b5; stroke:none;" d="M258 167L259 168L258 167z"/>
<path style="fill:#72664b; stroke:none;" d="M259 167L260 168L259 167M262 167L263 168L262 167z"/>
<path style="fill:#b6b6b5; stroke:none;" d="M263.667 167.333L264.333 167.667L263.667 167.333z"/>
<path style="fill:#fcfcfc; stroke:none;" d="M269 167C269 179.008 271.631 188.199 284 179L283 184L288 184C288 178.172 290.39 168.233 283 167C282.961 180.727 274.002 180.939 274 167L269 167z"/>
<path style="fill:#72664b; stroke:none;" d="M274 167L274 177L275 177L274 167M282 167L282 174L283 174L282 167z"/>
<path style="fill:#b6b6b5; stroke:none;" d="M287 167L288 168L287 167z"/>
<path style="fill:#72664b; stroke:none;" d="M290 167L291 168L290 167z"/>
<path style="fill:#fcfcfc; stroke:none;" d="M291 167L298 187L293 186C293.646 189.868 298.62 193.584 301.973 189.397C305.702 184.74 308.527 172.94 311 167C304.196 167.525 302.541 172.844 302 179L300 179C299.392 172.934 297.694 167.517 291 167z"/>
<path style="fill:#b6b6b5; stroke:none;" d="M296 167L297 168L296 167M305 167L306 168L305 167M318 167L319 168L318 167z"/>
<path style="fill:#fcfcfc; stroke:none;" d="M331 178C325.498 178.67 322.049 180.842 318 176L331 176C329.566 167.053 315.571 162.832 314.164 174.004C312.82 184.667 327.434 187.408 331 178z"/>
<path style="fill:#b6b6b5; stroke:none;" d="M325 167L326 168L325 167z"/>
<path style="fill:#72664b; stroke:none;" d="M326 167L327 168L326 167z"/>
<path style="fill:#b6b6b5; stroke:none;" d="M335 167L335 184L336 184L335 167z"/>
<path style="fill:#fcfcfc; stroke:none;" d="M336 167L336 184L340 184C340.039 170.273 348.998 170.061 349 184L354 184C354 178.702 355.221 165.392 346.1 167.477C343.406 168.093 341.397 170.724 339 172L340 167L336 167z"/>
<path style="fill:#b99245; stroke:none;" d="M340 167L341 168L340 167z"/>
<path style="fill:#b6b6b5; stroke:none;" d="M344 167L345 168L344 167z"/>
<path style="fill:#b99245; stroke:none;" d="M350 167L351 168L350 167z"/>
<path style="fill:#72664b; stroke:none;" d="M172 168L173 169L172 168z"/>
<path style="fill:#b6b6b5; stroke:none;" d="M173 168L174 169L173 168M184 168L185 169L184 168z"/>
<path style="fill:#72664b; stroke:none;" d="M201 168L202 169L201 168z"/>
<path style="fill:#b6b6b5; stroke:none;" d="M226 168L227 169L226 168z"/>
<path style="fill:#72664b; stroke:none;" d="M231 168L232 169L231 168M247 168L248 169L247 168z"/>
<path style="fill:#b6b6b5; stroke:none;" d="M261 168L262 169L261 168M291 168L292 169L291 168z"/>
<path style="fill:#72664b; stroke:none;" d="M304 168L305 169L304 168z"/>
<path style="fill:#b6b6b5; stroke:none;" d="M310 168L311 169L310 168z"/>
<path style="fill:#72664b; stroke:none;" d="M316 168L317 169L316 168z"/>
<path style="fill:#b6b6b5; stroke:none;" d="M327 168L328 169L327 168z"/>
<path style="fill:#72664b; stroke:none;" d="M328 168L329 169L328 168z"/>
<path style="fill:#b6b6b5; stroke:none;" d="M340 168L341 169L340 168z"/>
<path style="fill:#72664b; stroke:none;" d="M171 169L172 170L171 169z"/>
<path style="fill:#b6b6b5; stroke:none;" d="M185 169L186 170L185 169z"/>
<path style="fill:#b99245; stroke:none;" d="M201 169L201 179L202 179L201 169M226 169L227 170L226 169z"/>
<path style="fill:#b6b6b5; stroke:none;" d="M231 169L232 170L231 169z"/>
<path style="fill:#72664b; stroke:none;" d="M246 169L247 170L246 169M291 169L292 170L291 169M297 169L298 170L297 169z"/>
<path style="fill:#b6b6b5; stroke:none;" d="M304 169L305 170L304 169M315 169L316 170L315 169z"/>
<path style="fill:#72664b; stroke:none;" d="M329 169L330 170L329 169z"/>
<path style="fill:#b99245; stroke:none;" d="M340 169L341 170L340 169z"/>
<path style="fill:#b6b6b5; stroke:none;" d="M342 169L343 170L342 169M352 169L353 170L352 169M171 170L172 171L171 170z"/>
<path style="fill:#b99245; stroke:none;" d="M186 170L187 171L186 170z"/>
<path style="fill:#72664b; stroke:none;" d="M226 170L227 171L226 170M245 170L246 171L245 170z"/>
<path style="fill:#b6b6b5; stroke:none;" d="M309 170L310 171L309 170z"/>
<path style="fill:#72664b; stroke:none;" d="M314 170L315 171L314 170z"/>
<path style="fill:#1d1f1d; stroke:none;" d="M340.333 170.667L340.667 171.333L340.333 170.667z"/>
<path style="fill:#72664b; stroke:none;" d="M341 170L342 171L341 170M353 170L354 171L353 170M170 171L170 174L171 174L170 171z"/>
<path style="fill:#b6b6b5; stroke:none;" d="M176 171L171 173L171 174L176 175L176 171z"/>
<path style="fill:#72664b; stroke:none;" d="M177 171L178 172L177 171z"/>
<path style="fill:#1d1f1d; stroke:none;" d="M176 174L182 173C179.372 171.603 177.819 171.585 176 174z"/>
<path style="fill:#72664b; stroke:none;" d="M179.667 171.333L180.333 171.667L179.667 171.333M232 171L233 172L232 171z"/>
<path style="fill:#b6b6b5; stroke:none;" d="M245.333 171.667L245.667 172.333L245.333 171.667M252.667 171.333L253.333 171.667L252.667 171.333z"/>
<path style="fill:#b99245; stroke:none;" d="M254.667 171.333L255.333 171.667L254.667 171.333z"/>
<path style="fill:#b6b6b5; stroke:none;" d="M256.667 171.333L257.333 171.667L256.667 171.333M265.667 171.333L266.333 171.667L265.667 171.333z"/>
<path style="fill:#72664b; stroke:none;" d="M292 171L293 172L292 171M298 171L299 172L298 171z"/>
<path style="fill:#b99245; stroke:none;" d="M303 171L304 172L303 171z"/>
<path style="fill:#72664b; stroke:none;" d="M309 171L310 172L309 171z"/>
<path style="fill:#b6b6b5; stroke:none;" d="M319 171L318 174L319 174L319 171z"/>
<path style="fill:#72664b; stroke:none;" d="M320.667 171.333L321.333 171.667L320.667 171.333z"/>
<path style="fill:#1d1f1d; stroke:none;" d="M319 172L319 173L325 173L319 172z"/>
<path style="fill:#72664b; stroke:none;" d="M323 171L324 172L323 171z"/>
<path style="fill:#b99245; stroke:none;" d="M324 171L325 172L324 171z"/>
<path style="fill:#72664b; stroke:none;" d="M330 171L331 172L330 171z"/>
<path style="fill:#b6b6b5; stroke:none;" d="M339 171L340 172L339 171M341 171L342 172L341 171M343.667 171.333L344.333 171.667L343.667 171.333z"/>
<path style="fill:#b99245; stroke:none;" d="M345 171L346 172L345 171z"/>
<path style="fill:#b6b6b5; stroke:none;" d="M346 171L347 172L346 171M353 171L354 172L353 171z"/>
<path style="fill:#72664b; stroke:none;" d="M187.333 172.667L187.667 173.333L187.333 172.667z"/>
<path style="fill:#b6b6b5; stroke:none;" d="M227 172L228 173L227 172M232 172L233 173L232 172z"/>
<path style="fill:#1d1f1d; stroke:none;" d="M251 172C252.416 176.023 255.187 175.819 259 175L259 173L251 172z"/>
<path style="fill:#72664b; stroke:none;" d="M258 172L259 173L258 172z"/>
<path style="fill:#b99245; stroke:none;" d="M264 172L265 173L264 172z"/>
<path style="fill:#b6b6b5; stroke:none;" d="M298 172L299 173L298 172M308 172L309 173L308 172z"/>
<path style="fill:#72664b; stroke:none;" d="M313 172L314 173L313 172M325 172L319 173L319 174L325 172z"/>
<path style="fill:#b6b6b5; stroke:none;" d="M330 172L331 173L330 172z"/>
<path style="fill:#72664b; stroke:none;" d="M342 172L343 173L342 172M175 173L176 174L175 173M179.667 173.333L180.333 173.667L179.667 173.333z"/>
<path style="fill:#b6b6b5; stroke:none;" d="M181 173L182 174L181 173z"/>
<path style="fill:#72664b; stroke:none;" d="M227 173L228 174L227 173z"/>
<path style="fill:#b99245; stroke:none;" d="M250 173L251 174L250 173z"/>
<path style="fill:#b6b6b5; stroke:none;" d="M259.333 173.667L259.667 174.333L259.333 173.667M264.333 173.667L264.667 174.333L264.333 173.667z"/>
<path style="fill:#72664b; stroke:none;" d="M293 173L294 174L293 173M302 173L303 174L302 173M308 173L309 174L308 173z"/>
<path style="fill:#b99245; stroke:none;" d="M313 173L314 174L313 173z"/>
<path style="fill:#b6b6b5; stroke:none;" d="M341 173L342 174L341 173z"/>
<path style="fill:#72664b; stroke:none;" d="M348.333 173.667L348.667 174.333L348.333 173.667M174 174L175 175L174 174z"/>
<path style="fill:#b99245; stroke:none;" d="M187 174L187 179L188 179L187 174z"/>
<path style="fill:#72664b; stroke:none;" d="M233 174L234 175L233 174z"/>
<path style="fill:#b6b6b5; stroke:none;" d="M245 174L246 175L245 174M250 174L251 175L250 174z"/>
<path style="fill:#b99245; stroke:none;" d="M282 174L283 175L282 174z"/>
<path style="fill:#72664b; stroke:none;" d="M299 174L300 175L299 174z"/>
<path style="fill:#b6b6b5; stroke:none;" d="M302 174L303 175L302 174M307 174L308 175L307 174M313 174L313 177L314 177L313 174z"/>
<path style="fill:#72664b; stroke:none;" d="M354 174L354 184L355 184L354 174z"/>
<path style="fill:#b6b6b5; stroke:none;" d="M149 175L149 184L150 184L149 175M161 175L161 184L162 184L161 175M172 175L173 176L172 175M228 175L229 176L228 175z"/>
<path style="fill:#b99245; stroke:none;" d="M233 175L234 176L233 175z"/>
<path style="fill:#72664b; stroke:none;" d="M245 175L246 176L245 175z"/>
<path style="fill:#b6b6b5; stroke:none;" d="M251 175L252 176L251 175z"/>
<path style="fill:#72664b; stroke:none;" d="M252 175L253 176L252 175M257 175L258 176L257 175z"/>
<path style="fill:#b6b6b5; stroke:none;" d="M258 175L259 176L258 175z"/>
<path style="fill:#b99245; stroke:none;" d="M264 175L265 176L264 175z"/>
<path style="fill:#b6b6b5; stroke:none;" d="M282 175L283 176L282 175z"/>
<path style="fill:#72664b; stroke:none;" d="M294 175L295 176L294 175M307 175L308 176L307 175z"/>
<path style="fill:#b6b6b5; stroke:none;" d="M340 175L340 184L341 184L340 175M171 176L172 177L171 176M179.667 176.333L180.333 176.667L179.667 176.333z"/>
<path style="fill:#72664b; stroke:none;" d="M181 176L182 177L181 176M228 176L229 177L228 176M300 176L300 179L302 179L302 176L300 176z"/>
<path style="fill:#b6b6b5; stroke:none;" d="M306 176L307 177L306 176M318 176L318 177L331 177L318 176z"/>
<path style="fill:#b99245; stroke:none;" d="M170 177L171 178L170 177z"/>
<path style="fill:#b6b6b5; stroke:none;" d="M175 177L176 178L175 177z"/>
<path style="fill:#72664b; stroke:none;" d="M176 177L177 178L176 177z"/>
<path style="fill:#1d1f1d; stroke:none;" d="M176 178L176 179L182 178L176 178z"/>
<path style="fill:#b6b6b5; stroke:none;" d="M247 177L248 178L247 177M257 177L258 178L257 177z"/>
<path style="fill:#72664b; stroke:none;" d="M263 177L264 178L263 177z"/>
<path style="fill:#b99245; stroke:none;" d="M274 177L275 178L274 177z"/>
<path style="fill:#72664b; stroke:none;" d="M281 177L282 178L281 177M295 177L296 178L295 177M306 177L307 178L306 177M313 177L314 178L313 177z"/>
<path style="fill:#b99245; stroke:none;" d="M318 177L319 178L318 177z"/>
<path style="fill:#b6b6b5; stroke:none;" d="M170 178L171 179L170 178z"/>
<path style="fill:#b99245; stroke:none;" d="M175 178L176 179L175 178z"/>
<path style="fill:#b6b6b5; stroke:none;" d="M229 178L230 179L229 178z"/>
<path style="fill:#b99245; stroke:none;" d="M234 178L235 179L234 178z"/>
<path style="fill:#72664b; stroke:none;" d="M249 178L250 179L249 178z"/>
<path style="fill:#b6b6b5; stroke:none;" d="M250 178L250 179L254 179L250 178z"/>
<path style="fill:#72664b; stroke:none;" d="M253 180L256 178L253 180z"/>
<path style="fill:#1d1f1d; stroke:none;" d="M256 178L257 179L256 178z"/>
<path style="fill:#72664b; stroke:none;" d="M257 178L258 179L257 178z"/>
<path style="fill:#b6b6b5; stroke:none;" d="M261 178L262 179L261 178z"/>
<path style="fill:#72664b; stroke:none;" d="M262 178L263 179L262 178z"/>
<path style="fill:#b6b6b5; stroke:none;" d="M269.333 178.667L269.667 179.333L269.333 178.667z"/>
<path style="fill:#72664b; stroke:none;" d="M280 178L281 179L280 178z"/>
<path style="fill:#b6b6b5; stroke:none;" d="M305 178L306 179L305 178M326 178L327 179L326 178M331 178L332 179L331 178z"/>
<path style="fill:#b99245; stroke:none;" d="M176 179L177 180L176 179z"/>
<path style="fill:#72664b; stroke:none;" d="M177 179L178 180L177 179z"/>
<path style="fill:#b99245; stroke:none;" d="M178 179L179 180L178 179z"/>
<path style="fill:#b6b6b5; stroke:none;" d="M179 179L180 180L179 179z"/>
<path style="fill:#72664b; stroke:none;" d="M183 179L184 180L183 179z"/>
<path style="fill:#b6b6b5; stroke:none;" d="M184 179L185 180L184 179M188.667 179.333L189.333 179.667L188.667 179.333z"/>
<path style="fill:#72664b; stroke:none;" d="M191 179L191 184L192 184L191 179z"/>
<path style="fill:#b6b6b5; stroke:none;" d="M202 179L202 180L206 180L202 179z"/>
<path style="fill:#72664b; stroke:none;" d="M206 179L206 184L207 184L206 179M229 179L230 180L229 179z"/>
<path style="fill:#b6b6b5; stroke:none;" d="M255.667 179.333L256.333 179.667L255.667 179.333z"/>
<path style="fill:#72664b; stroke:none;" d="M260 179L261 180L260 179z"/>
<path style="fill:#b99245; stroke:none;" d="M276 179L277 180L276 179z"/>
<path style="fill:#72664b; stroke:none;" d="M277.667 179.333L278.333 179.667L277.667 179.333z"/>
<path style="fill:#b6b6b5; stroke:none;" d="M279 179L280 180L279 179z"/>
<path style="fill:#1d1f1d; stroke:none;" d="M282.333 179.667L282.667 180.333L282.333 179.667z"/>
<path style="fill:#b6b6b5; stroke:none;" d="M283 179L284 180L283 179z"/>
<path style="fill:#b99245; stroke:none;" d="M296 179L297 180L296 179z"/>
<path style="fill:#72664b; stroke:none;" d="M305 179L306 180L305 179z"/>
<path style="fill:#b6b6b5; stroke:none;" d="M314 179L315 180L314 179z"/>
<path style="fill:#72664b; stroke:none;" d="M320.667 179.333L321.333 179.667L320.667 179.333M324 179L325 180L324 179z"/>
<path style="fill:#b6b6b5; stroke:none;" d="M325 179L326 180L325 179z"/>
<path style="fill:#72664b; stroke:none;" d="M331 179L332 180L331 179z"/>
<path style="fill:#b6b6b5; stroke:none;" d="M170 180L171 181L170 180M182 180L183 181L182 180z"/>
<path style="fill:#1d1f1d; stroke:none;" d="M183 180L184 181L183 180z"/>
<path style="fill:#72664b; stroke:none;" d="M247 180L247 183L248 183L247 180z"/>
<path style="fill:#b6b6b5; stroke:none;" d="M248.667 180.333L249.333 180.667L248.667 180.333z"/>
<path style="fill:#72664b; stroke:none;" d="M258 180L259 181L258 180M269 180L270 181L269 180z"/>
<path style="fill:#b6b6b5; stroke:none;" d="M281 180L282 181L281 180M304 180L305 181L304 180z"/>
<path style="fill:#72664b; stroke:none;" d="M314 180L315 181L314 180z"/>
<path style="fill:#b6b6b5; stroke:none;" d="M330 180L331 181L330 180z"/>
<path style="fill:#72664b; stroke:none;" d="M170 181L171 182L170 181M182.667 181.333L183.333 181.667L182.667 181.333z"/>
<path style="fill:#b6b6b5; stroke:none;" d="M230 181L231 182L230 181M261 181L262 182L261 181z"/>
<path style="fill:#72664b; stroke:none;" d="M262 181L263 182L262 181z"/>
<path style="fill:#b6b6b5; stroke:none;" d="M270 181L271 182L270 181z"/>
<path style="fill:#72664b; stroke:none;" d="M282 181L282 184L283 184L282 181z"/>
<path style="fill:#b99245; stroke:none;" d="M297 181L298 182L297 181z"/>
<path style="fill:#72664b; stroke:none;" d="M304 181L305 182L304 181M315 181L316 182L315 181z"/>
<path style="fill:#b6b6b5; stroke:none;" d="M171 182L172 183L171 182z"/>
<path style="fill:#72664b; stroke:none;" d="M181 182L182 183L181 182M230 182L231 183L230 182z"/>
<path style="fill:#b6b6b5; stroke:none;" d="M252 182L252 183L255 183L252 182z"/>
<path style="fill:#b99245; stroke:none;" d="M255.667 182.333L256.333 182.667L255.667 182.333z"/>
<path style="fill:#b6b6b5; stroke:none;" d="M257 182L258 183L257 182z"/>
<path style="fill:#72664b; stroke:none;" d="M263 182L264 183L263 182M280 182L281 183L280 182z"/>
<path style="fill:#b6b6b5; stroke:none;" d="M303 182L303 188L304 188L303 182z"/>
<path style="fill:#72664b; stroke:none;" d="M316 182L317 183L316 182z"/>
<path style="fill:#b6b6b5; stroke:none;" d="M328 182L329 183L328 182z"/>
<path style="fill:#b99245; stroke:none;" d="M172 183L173 184L172 183z"/>
<path style="fill:#b6b6b5; stroke:none;" d="M179 183L180 184L179 183z"/>
<path style="fill:#72664b; stroke:none;" d="M180 183L181 184L180 183M184 183L185 184L184 183M248.667 183.333L249.333 183.667L248.667 183.333M264 183L265 184L264 183z"/>
<path style="fill:#b6b6b5; stroke:none;" d="M272 183L273 184L272 183M278 183L279 184L278 183z"/>
<path style="fill:#72664b; stroke:none;" d="M279 183L280 184L279 183z"/>
<path style="fill:#b6b6b5; stroke:none;" d="M298 183L298 186L299 186L298 183z"/>
<path style="fill:#b99245; stroke:none;" d="M318 183L319 184L318 183z"/>
<path style="fill:#b6b6b5; stroke:none;" d="M326 183L327 184L326 183z"/>
<path style="fill:#72664b; stroke:none;" d="M327 183L328 184L327 183M174 184L174 185L178 185L174 184z"/>
<path style="fill:#b99245; stroke:none;" d="M264.333 184.667L264.667 185.333L264.333 184.667z"/>
<path style="fill:#72664b; stroke:none;" d="M274 184L274 185L277 185L274 184M321 184L321 185L325 185L321 184M255 185L255 186L258 186L255 185z"/>
<path style="fill:#b6b6b5; stroke:none;" d="M258 185L259 186L258 185M246 186L246 191L254 191L254 190L247 190L246 186z"/>
<path style="fill:#72664b; stroke:none;" d="M264 186L265 187L264 186z"/>
<path style="fill:#b99245; stroke:none;" d="M292 186L293 187L292 186z"/>
<path style="fill:#b6b6b5; stroke:none;" d="M296.667 186.333L297.333 186.667L296.667 186.333M292 187L293 191L294 191L292 187M262 188L263 189L262 188z"/>
<path style="fill:#b99245; stroke:none;" d="M303 188L304 189L303 188z"/>
<path style="fill:#b6b6b5; stroke:none;" d="M260 189L261 190L260 189z"/>
<path style="fill:#72664b; stroke:none;" d="M261 189L262 190L261 189M303 189L304 190L303 189z"/>
<path style="fill:#b99245; stroke:none;" d="M254 190L255 191L254 190z"/>
<path style="fill:#72664b; stroke:none;" d="M255 190L255 191L258 191L255 190M292 190L293 191L292 190z"/>
<path style="fill:#b99245; stroke:none;" d="M302 190L303 191L302 190z"/>
</svg>
