<?xml version="1.0" standalone="yes"?>
<svg xmlns="http://www.w3.org/2000/svg" width="500" height="500">
<path style="fill:#1d1f1d; stroke:none;" d="M0 0L0 500L500 500L500 0L0 0z"/>
<path style="fill:#b99245; stroke:none;" d="M268 164L268 199C268 202.503 269.131 208.663 266.397 211.397C261.776 216.017 244.26 213 238 213C208.478 213 162.142 204.296 151.927 242C141.477 280.577 187.573 310.369 217.91 283.535C231.782 271.265 231 254.843 231 238L212 238C212 245.663 212.785 253.846 209.446 260.999C203.458 273.827 187.883 277.513 177.093 268.471C164.884 258.239 169.916 239.993 184 234.133C199.774 227.571 224.114 232 241 232C248.028 232 257.15 230.453 263.941 232.318C270.458 234.108 267.998 246.851 268 252C268.005 266.07 273.199 279.188 285.004 287.56C297.067 296.115 316.008 296.648 329 289.676C353.594 276.478 357.234 238.746 334.999 221.529C321.222 210.862 304.326 213 288 213L288 164L268 164z"/>
<path style="fill:#72664b; stroke:none;" d="M211 166L211 208C215.75 208 226.546 210.022 230.397 206.972C232.75 205.109 231.999 200.617 232 198C232.003 192.061 235.225 170.852 230.397 167.028C226.546 163.978 215.75 166 211 166z"/>
<path style="fill:#b99245; stroke:none;" d="M212 167L212 207L231 207L231 167L212 167z"/>
<path style="fill:#72664b; stroke:none;" d="M186 212L186 213L267 213L242 212L186 212M288 212L288 213L314 213L288 212M181.667 213.333L182.333 213.667L181.667 213.333M317 213L317 214L320 214L317 213M178 214L179 215L178 214M321.667 214.333L322.333 214.667L321.667 214.333M175 215L176 216L175 215M324 215L325 216L324 215M173 216L174 217L173 216M326 216L327 217L326 216M171 217L172 218L171 217M328 217L329 218L328 217M169 218L170 219L169 218M330 218L331 219L330 218M168 219L169 220L168 219M332 219L333 220L332 219M166 220L167 221L166 220M333 220L334 221L333 220M165 221L166 222L165 221M164 222L165 223L164 222M337 223L338 224L337 223M338 224L339 225L338 224M160 226L161 227L160 226M159 227L160 228L159 227M158 228L159 229L158 228M342 229L343 230L342 229M156 231L157 232L156 231M189 232L189 233L267 233L243 232L189 232M288 232L288 233L312 233L288 232M344 232L345 233L344 232M155 233L156 234L155 233M185 233L186 234L185 233z"/>
<path style="fill:#1d1f1d; stroke:none;" d="M288 233C288 240.546 287.273 248.506 288.184 256C288.657 259.882 290.134 263.866 292.558 266.957C315.224 295.859 350.212 241.9 314 233.529C305.902 231.657 296.286 233 288 233z"/>
<path style="fill:#72664b; stroke:none;" d="M314.667 233.333L315.333 233.667L314.667 233.333M182 234L183 235L182 234M317 234L318 235L317 234M345 234L346 235L345 234M154 235L155 236L154 235M180 235L181 236L180 235M319 235L320 236L319 235M179 236L180 237L179 236M321 236L322 237L321 236M346 236L347 237L346 236M153 237L154 238L153 237M211 237L211 255L212 255L212 238L231 238L211 237M322 237L323 238L322 237M231 238L231 258L232 258L231 238M323 238L324 239L323 238M347 238L348 239L347 238M152 239L153 240L152 239M324 239L325 240L324 239M325 240L326 241L325 240M348 241L349 242L348 241M151.333 242.667L151.667 243.333L151.333 242.667M173 242L174 243L173 242M327 243L328 244L327 243M172 244L173 245L172 244M349 244L349 247L350 247L349 244M328 245L329 246L328 245M171 246L172 247L171 246M150 247L150 252L151 252L150 247M329.333 248.667L329.667 249.333L329.333 248.667M170 249L171 250L170 249M169 252L169 256L170 256L169 252M150 256L150 261L151 261L150 256M349 256L349 261L350 261L349 256M329.333 257.667L329.667 258.333L329.333 257.667M170.333 258.667L170.667 259.333L170.333 258.667M210 258L211 259L210 258M288.333 258.667L288.667 259.333L288.333 258.667M171 261L172 262L171 261M209 261L210 262L209 261M230.333 261.667L230.667 262.333L230.333 261.667M268.333 261.667L268.667 262.333L268.333 261.667M289.333 261.667L289.667 262.333L289.333 261.667M328 261L329 262L328 261M151.333 263.667L151.667 264.333L151.333 263.667M172 263L173 264L172 263M208 263L209 264L208 263M327 263L328 264L327 263M290 264L291 265L290 264M348.333 264.667L348.667 265.333L348.333 264.667M229 265L230 266L229 265M269.333 265.667L269.667 266.333L269.333 265.667M291 265L292 266L291 265M326 265L327 266L326 265M174 266L175 267L174 266M325 266L326 267L325 266M152 267L153 268L152 267M175 267L176 268L175 267M205 267L206 268L205 267M324 267L325 268L324 267M347.333 267.667L347.667 268.333L347.333 267.667M176 268L177 269L176 268M228 268L229 269L228 268M270.333 268.667L270.667 269.333L270.333 268.667M153 269L154 270L153 269M322 269L323 270L322 269M179 270L180 271L179 270M201 270L202 271L201 270M227 270L228 271L227 270M321 270L322 271L321 270M346 270L347 271L346 270M181 271L182 272L181 271M199 271L200 272L199 271M271 271L272 272L271 271M297 271L298 272L297 271M320 271L321 272L320 271M154 272L155 273L154 272M183 272L184 273L183 272M197 272L198 273L197 272M226 272L227 273L226 272M299 272L300 273L299 272M318 272L319 273L318 272M345 272L346 273L345 272M155 273L156 274L155 273M186 273L186 274L190 274L186 273M192 273L192 274L195 274L192 273M272 273L273 274L272 273M301 273L302 274L301 273M316 273L317 274L316 273M225 274L226 275L225 274M304.667 274.333L305.333 274.667L304.667 274.333M312.667 274.333L313.333 274.667L312.667 274.333M344 274L345 275L344 274M156 275L157 276L156 275M224 275L225 276L224 275M274 276L275 277L274 276M223 277L224 278L223 277M342 277L343 278L342 277M158 278L159 279L158 278M222 278L223 279L222 278M221 279L222 280L221 279M276 279L277 280L276 279M277 280L278 281L277 280M278 281L279 282L278 281M339 281L340 282L339 281M338 282L339 283L338 282M337 283L338 284L337 283M216 284L217 285L216 284M336 284L337 285L336 284M165 285L166 286L165 285M215 285L216 286L215 285M282 285L283 286L282 285M335 285L336 286L335 285M166 286L167 287L166 286M283 286L284 287L283 286M168 287L169 288L168 287M212 287L213 288L212 287M332 287L333 288L332 287M286 288L287 289L286 288M171 289L172 290L171 289M209 289L210 290L209 289M329 289L330 290L329 289M173 290L174 291L173 290M206.667 290.333L207.333 290.667L206.667 290.333M289 290L290 291L289 290M327 290L328 291L327 290M176 291L177 292L176 291M204 291L205 292L204 291M291 291L292 292L291 291M325 291L326 292L325 291M178.667 292.333L179.333 292.667L178.667 292.333M201 292L202 293L201 292M293.667 292.333L294.333 292.667L293.667 292.333M322 292L323 293L322 292M183 293L183 294L186 294L183 293M195 293L195 294L198 294L195 293M296.667 293.333L297.333 293.667L296.667 293.333M318.667 293.333L319.333 293.667L318.667 293.333M301 294L301 295L314 295L301 294M145 310L146 311L145 310z"/>
<path style="fill:#b6b6b5; stroke:none;" d="M145 334L146 334L146 311L150 311C150.01 324.132 162.99 324.132 163 311L167 311L167 334L168 334C168 327.668 169.487 319.228 167.682 313.149C165.194 304.766 162.002 317.274 162 320L151 320C150.998 317.274 147.806 304.766 145.318 313.149C143.513 319.228 145 327.668 145 334z"/>
<path style="fill:#72664b; stroke:none;" d="M150 310L151 311L150 310M162 310L163 311L162 310M167 310L168 311L167 310M197 310L196 312L197 310z"/>
<path style="fill:#b6b6b5; stroke:none;" d="M198 310L199 311L198 310z"/>
<path style="fill:#fcfcfc; stroke:none;" d="M197 315L202 315C201.176 310.279 197.824 310.279 197 315z"/>
<path style="fill:#b6b6b5; stroke:none;" d="M200 310L201 311L200 310z"/>
<path style="fill:#72664b; stroke:none;" d="M201 310L202 311L201 310M219 310L220 311L219 310z"/>
<path style="fill:#b6b6b5; stroke:none;" d="M219 334L220 334L220 311L229 311C215.195 305.209 219 326.135 219 334z"/>
<path style="fill:#b99245; stroke:none;" d="M229 310L230 311L229 310z"/>
<path style="fill:#72664b; stroke:none;" d="M237 310L238 311L237 310z"/>
<path style="fill:#b6b6b5; stroke:none;" d="M236 330L237 330L238 311L242 311L242 334C244.162 328.848 243.447 320.582 242.941 315.019C242.754 312.957 241.41 309.102 238.584 311.086C235.033 313.58 236.996 325.815 236 330z"/>
<path style="fill:#72664b; stroke:none;" d="M242 310L243 311L242 310z"/>
<path style="fill:#fcfcfc; stroke:none;" d="M146 311L146 334L150 334L150 325L163 325L163 334L167 334L167 311L163 311C162.955 323.791 150.045 323.791 150 311L146 311z"/>
<path style="fill:#72664b; stroke:none;" d="M202 311L203 312L202 311z"/>
<path style="fill:#fcfcfc; stroke:none;" d="M220 311L220 334L224 334L224 315C229.19 318.173 230.675 328.273 232 334L242 334L242 311L238 311L237 330L236 330L230 311L220 311z"/>
<path style="fill:#b6b6b5; stroke:none;" d="M196 312L197 313L196 312M202.333 312.667L202.667 313.333L202.333 312.667z"/>
<path style="fill:#72664b; stroke:none;" d="M230 312L231 313L230 312z"/>
<path style="fill:#b99245; stroke:none;" d="M196 313L197 314L196 313z"/>
<path style="fill:#b6b6b5; stroke:none;" d="M230 313L231 314L230 313z"/>
<path style="fill:#72664b; stroke:none;" d="M198 315L199 317L200 317L201 315L198 315z"/>
<path style="fill:#b6b6b5; stroke:none;" d="M224 315L224 334L225 334L224 315M226 315L227 316L226 315z"/>
<path style="fill:#72664b; stroke:none;" d="M231 315L232 316L231 315M179 316L180 317L179 316M226 316L227 317L226 316z"/>
<path style="fill:#b6b6b5; stroke:none;" d="M231 316L232 317L231 316z"/>
<path style="fill:#72664b; stroke:none;" d="M255 316L256 317L255 316M323 316L324 317L323 316M348 316L349 317L348 316M175 317L176 318L175 317z"/>
<path style="fill:#b6b6b5; stroke:none;" d="M176 317L177 318L176 317z"/>
<path style="fill:#fcfcfc; stroke:none;" d="M172 323C176.398 322.467 179.533 320.602 183 324C179.594 324.073 174.956 324.009 172.851 327.278C170.174 331.435 175.296 334.412 178.961 333.548C181.68 332.907 183.825 330.617 186 329C185.384 333.025 187.201 333.705 191 334C189.722 325.739 178.146 306.786 172 323z"/>
<path style="fill:#b6b6b5; stroke:none;" d="M183 317L184 318L183 317M193 317L193 322L197 322L197 329L193 329L193 330C198.585 329.068 199.629 322.868 194 321L193 317z"/>
<path style="fill:#fcfcfc; stroke:none;" d="M194 317L194 321C198.896 323.703 198.306 328.389 193 330L193 334L207 334L207 330C198.215 327.333 205.468 317.136 194 317z"/>
<path style="fill:#b6b6b5; stroke:none;" d="M201 317L202 318L201 317z"/>
<path style="fill:#72664b; stroke:none;" d="M250 317L251 318L250 317z"/>
<path style="fill:#b6b6b5; stroke:none;" d="M251 317L252 318L251 317z"/>
<path style="fill:#fcfcfc; stroke:none;" d="M259 327L249 333C253.687 332.634 257.423 331.342 260 336L248 336L248 340C252.288 340 257.88 340.898 261.852 338.991C267.588 336.237 263.027 331.84 259 331L259 330C264.293 327.881 267.144 322.532 268 317C262.291 318.208 254.087 315.198 249.282 318.858C240.447 325.588 253.814 328.532 259 327z"/>
<path style="fill:#b6b6b5; stroke:none;" d="M259 317L260 318L259 317z"/>
<path style="fill:#72664b; stroke:none;" d="M260 317L261 318L260 317M263 317L264 318L263 317z"/>
<path style="fill:#b6b6b5; stroke:none;" d="M264.667 317.333L265.333 317.667L264.667 317.333z"/>
<path style="fill:#fcfcfc; stroke:none;" d="M270 317C270 329.008 272.631 338.199 285 329L284 334L289 334C289 328.172 291.39 318.233 284 317C283.961 330.727 275.002 330.939 275 317L270 317z"/>
<path style="fill:#72664b; stroke:none;" d="M275 317L275 327L276 327L275 317M283 317L283 324L284 324L283 317z"/>
<path style="fill:#b6b6b5; stroke:none;" d="M288 317L289 318L288 317z"/>
<path style="fill:#72664b; stroke:none;" d="M291 317L292 318L291 317z"/>
<path style="fill:#fcfcfc; stroke:none;" d="M292 317L299 337L294 336C294.646 339.868 299.62 343.584 302.973 339.397C306.702 334.74 309.527 322.94 312 317C305.196 317.525 303.541 322.844 303 329L301 329C300.392 322.934 298.694 317.517 292 317z"/>
<path style="fill:#b6b6b5; stroke:none;" d="M297 317L298 318L297 317M306 317L307 318L306 317M319 317L320 318L319 317z"/>
<path style="fill:#fcfcfc; stroke:none;" d="M332 328C326.498 328.67 323.049 330.842 319 326L332 326C330.566 317.053 316.571 312.832 315.164 324.004C313.82 334.667 328.434 337.408 332 328z"/>
<path style="fill:#b6b6b5; stroke:none;" d="M326 317L327 318L326 317z"/>
<path style="fill:#72664b; stroke:none;" d="M327 317L328 318L327 317z"/>
<path style="fill:#b6b6b5; stroke:none;" d="M336 317L336 334L337 334L336 317z"/>
<path style="fill:#fcfcfc; stroke:none;" d="M337 317L337 334L341 334C341.039 320.273 349.998 320.061 350 334L355 334C355 328.702 356.221 315.392 347.1 317.477C344.406 318.093 342.397 320.724 340 322L341 317L337 317z"/>
<path style="fill:#b99245; stroke:none;" d="M341 317L342 318L341 317z"/>
<path style="fill:#b6b6b5; stroke:none;" d="M345 317L346 318L345 317z"/>
<path style="fill:#b99245; stroke:none;" d="M351 317L352 318L351 317z"/>
<path style="fill:#72664b; stroke:none;" d="M173 318L174 319L173 318z"/>
<path style="fill:#b6b6b5; stroke:none;" d="M174 318L175 319L174 318M185 318L186 319L185 318z"/>
<path style="fill:#72664b; stroke:none;" d="M202 318L203 319L202 318z"/>
<path style="fill:#b6b6b5; stroke:none;" d="M227 318L228 319L227 318z"/>
<path style="fill:#72664b; stroke:none;" d="M232 318L233 319L232 318M248 318L249 319L248 318z"/>
<path style="fill:#b6b6b5; stroke:none;" d="M262 318L263 319L262 318M292 318L293 319L292 318z"/>
<path style="fill:#72664b; stroke:none;" d="M305 318L306 319L305 318z"/>
<path style="fill:#b6b6b5; stroke:none;" d="M311 318L312 319L311 318z"/>
<path style="fill:#72664b; stroke:none;" d="M317 318L318 319L317 318z"/>
<path style="fill:#b6b6b5; stroke:none;" d="M328 318L329 319L328 318z"/>
<path style="fill:#72664b; stroke:none;" d="M329 318L330 319L329 318z"/>
<path style="fill:#b6b6b5; stroke:none;" d="M341 318L342 319L341 318z"/>
<path style="fill:#72664b; stroke:none;" d="M172 319L173 320L172 319z"/>
<path style="fill:#b6b6b5; stroke:none;" d="M186 319L187 320L186 319z"/>
<path style="fill:#b99245; stroke:none;" d="M202 319L202 329L203 329L202 319M227 319L228 320L227 319z"/>
<path style="fill:#b6b6b5; stroke:none;" d="M232 319L233 320L232 319z"/>
<path style="fill:#72664b; stroke:none;" d="M247 319L248 320L247 319M292 319L293 320L292 319M298 319L299 320L298 319z"/>
<path style="fill:#b6b6b5; stroke:none;" d="M305 319L306 320L305 319M316 319L317 320L316 319z"/>
<path style="fill:#72664b; stroke:none;" d="M330 319L331 320L330 319z"/>
<path style="fill:#b99245; stroke:none;" d="M341 319L342 320L341 319z"/>
<path style="fill:#b6b6b5; stroke:none;" d="M343 319L344 320L343 319M353 319L354 320L353 319M172 320L173 321L172 320z"/>
<path style="fill:#b99245; stroke:none;" d="M187 320L188 321L187 320z"/>
<path style="fill:#72664b; stroke:none;" d="M227 320L228 321L227 320M246 320L247 321L246 320z"/>
<path style="fill:#b6b6b5; stroke:none;" d="M310 320L311 321L310 320z"/>
<path style="fill:#72664b; stroke:none;" d="M315 320L316 321L315 320z"/>
<path style="fill:#1d1f1d; stroke:none;" d="M341.333 320.667L341.667 321.333L341.333 320.667z"/>
<path style="fill:#72664b; stroke:none;" d="M342 320L343 321L342 320M354 320L355 321L354 320M171 321L171 324L172 324L171 321z"/>
<path style="fill:#b6b6b5; stroke:none;" d="M177 321L172 323L172 324L177 325L177 321z"/>
<path style="fill:#72664b; stroke:none;" d="M178 321L179 322L178 321z"/>
<path style="fill:#1d1f1d; stroke:none;" d="M177 324L183 323C180.372 321.603 178.819 321.585 177 324z"/>
<path style="fill:#72664b; stroke:none;" d="M180.667 321.333L181.333 321.667L180.667 321.333M233 321L234 322L233 321z"/>
<path style="fill:#b6b6b5; stroke:none;" d="M246.333 321.667L246.667 322.333L246.333 321.667M253.667 321.333L254.333 321.667L253.667 321.333z"/>
<path style="fill:#b99245; stroke:none;" d="M255.667 321.333L256.333 321.667L255.667 321.333z"/>
<path style="fill:#b6b6b5; stroke:none;" d="M257.667 321.333L258.333 321.667L257.667 321.333M266.667 321.333L267.333 321.667L266.667 321.333z"/>
<path style="fill:#72664b; stroke:none;" d="M293 321L294 322L293 321M299 321L300 322L299 321z"/>
<path style="fill:#b99245; stroke:none;" d="M304 321L305 322L304 321z"/>
<path style="fill:#72664b; stroke:none;" d="M310 321L311 322L310 321z"/>
<path style="fill:#b6b6b5; stroke:none;" d="M320 321L319 324L320 324L320 321z"/>
<path style="fill:#72664b; stroke:none;" d="M321.667 321.333L322.333 321.667L321.667 321.333z"/>
<path style="fill:#1d1f1d; stroke:none;" d="M320 322L320 323L326 323L320 322z"/>
<path style="fill:#72664b; stroke:none;" d="M324 321L325 322L324 321z"/>
<path style="fill:#b99245; stroke:none;" d="M325 321L326 322L325 321z"/>
<path style="fill:#72664b; stroke:none;" d="M331 321L332 322L331 321z"/>
<path style="fill:#b6b6b5; stroke:none;" d="M340 321L341 322L340 321M342 321L343 322L342 321M344.667 321.333L345.333 321.667L344.667 321.333z"/>
<path style="fill:#b99245; stroke:none;" d="M346 321L347 322L346 321z"/>
<path style="fill:#b6b6b5; stroke:none;" d="M347 321L348 322L347 321M354 321L355 322L354 321z"/>
<path style="fill:#72664b; stroke:none;" d="M188.333 322.667L188.667 323.333L188.333 322.667z"/>
<path style="fill:#b6b6b5; stroke:none;" d="M228 322L229 323L228 322M233 322L234 323L233 322z"/>
<path style="fill:#1d1f1d; stroke:none;" d="M252 322C253.416 326.023 256.187 325.819 260 325L260 323L252 322z"/>
<path style="fill:#72664b; stroke:none;" d="M259 322L260 323L259 322z"/>
<path style="fill:#b99245; stroke:none;" d="M265 322L266 323L265 322z"/>
<path style="fill:#b6b6b5; stroke:none;" d="M299 322L300 323L299 322M309 322L310 323L309 322z"/>
<path style="fill:#72664b; stroke:none;" d="M314 322L315 323L314 322M326 322L320 323L320 324L326 322z"/>
<path style="fill:#b6b6b5; stroke:none;" d="M331 322L332 323L331 322z"/>
<path style="fill:#72664b; stroke:none;" d="M343 322L344 323L343 322M176 323L177 324L176 323M180.667 323.333L181.333 323.667L180.667 323.333z"/>
<path style="fill:#b6b6b5; stroke:none;" d="M182 323L183 324L182 323z"/>
<path style="fill:#72664b; stroke:none;" d="M228 323L229 324L228 323z"/>
<path style="fill:#b99245; stroke:none;" d="M251 323L252 324L251 323z"/>
<path style="fill:#b6b6b5; stroke:none;" d="M260.333 323.667L260.667 324.333L260.333 323.667M265.333 323.667L265.667 324.333L265.333 323.667z"/>
<path style="fill:#72664b; stroke:none;" d="M294 323L295 324L294 323M303 323L304 324L303 323M309 323L310 324L309 323z"/>
<path style="fill:#b99245; stroke:none;" d="M314 323L315 324L314 323z"/>
<path style="fill:#b6b6b5; stroke:none;" d="M342 323L343 324L342 323z"/>
<path style="fill:#72664b; stroke:none;" d="M349.333 323.667L349.667 324.333L349.333 323.667M175 324L176 325L175 324z"/>
<path style="fill:#b99245; stroke:none;" d="M188 324L188 329L189 329L188 324z"/>
<path style="fill:#72664b; stroke:none;" d="M234 324L235 325L234 324z"/>
<path style="fill:#b6b6b5; stroke:none;" d="M246 324L247 325L246 324M251 324L252 325L251 324z"/>
<path style="fill:#b99245; stroke:none;" d="M283 324L284 325L283 324z"/>
<path style="fill:#72664b; stroke:none;" d="M300 324L301 325L300 324z"/>
<path style="fill:#b6b6b5; stroke:none;" d="M303 324L304 325L303 324M308 324L309 325L308 324M314 324L314 327L315 327L314 324z"/>
<path style="fill:#72664b; stroke:none;" d="M355 324L355 334L356 334L355 324z"/>
<path style="fill:#b6b6b5; stroke:none;" d="M150 325L150 334L151 334L150 325M162 325L162 334L163 334L162 325M173 325L174 326L173 325M229 325L230 326L229 325z"/>
<path style="fill:#b99245; stroke:none;" d="M234 325L235 326L234 325z"/>
<path style="fill:#72664b; stroke:none;" d="M246 325L247 326L246 325z"/>
<path style="fill:#b6b6b5; stroke:none;" d="M252 325L253 326L252 325z"/>
<path style="fill:#72664b; stroke:none;" d="M253 325L254 326L253 325M258 325L259 326L258 325z"/>
<path style="fill:#b6b6b5; stroke:none;" d="M259 325L260 326L259 325z"/>
<path style="fill:#b99245; stroke:none;" d="M265 325L266 326L265 325z"/>
<path style="fill:#b6b6b5; stroke:none;" d="M283 325L284 326L283 325z"/>
<path style="fill:#72664b; stroke:none;" d="M295 325L296 326L295 325M308 325L309 326L308 325z"/>
<path style="fill:#b6b6b5; stroke:none;" d="M341 325L341 334L342 334L341 325M172 326L173 327L172 326M180.667 326.333L181.333 326.667L180.667 326.333z"/>
<path style="fill:#72664b; stroke:none;" d="M182 326L183 327L182 326M229 326L230 327L229 326M301 326L301 329L303 329L303 326L301 326z"/>
<path style="fill:#b6b6b5; stroke:none;" d="M307 326L308 327L307 326M319 326L319 327L332 327L319 326z"/>
<path style="fill:#b99245; stroke:none;" d="M171 327L172 328L171 327z"/>
<path style="fill:#b6b6b5; stroke:none;" d="M176 327L177 328L176 327z"/>
<path style="fill:#72664b; stroke:none;" d="M177 327L178 328L177 327z"/>
<path style="fill:#1d1f1d; stroke:none;" d="M177 328L177 329L183 328L177 328z"/>
<path style="fill:#b6b6b5; stroke:none;" d="M248 327L249 328L248 327M258 327L259 328L258 327z"/>
<path style="fill:#72664b; stroke:none;" d="M264 327L265 328L264 327z"/>
<path style="fill:#b99245; stroke:none;" d="M275 327L276 328L275 327z"/>
<path style="fill:#72664b; stroke:none;" d="M282 327L283 328L282 327M296 327L297 328L296 327M307 327L308 328L307 327M314 327L315 328L314 327z"/>
<path style="fill:#b99245; stroke:none;" d="M319 327L320 328L319 327z"/>
<path style="fill:#b6b6b5; stroke:none;" d="M171 328L172 329L171 328z"/>
<path style="fill:#b99245; stroke:none;" d="M176 328L177 329L176 328z"/>
<path style="fill:#b6b6b5; stroke:none;" d="M230 328L231 329L230 328z"/>
<path style="fill:#b99245; stroke:none;" d="M235 328L236 329L235 328z"/>
<path style="fill:#72664b; stroke:none;" d="M250 328L251 329L250 328z"/>
<path style="fill:#b6b6b5; stroke:none;" d="M251 328L251 329L255 329L251 328z"/>
<path style="fill:#72664b; stroke:none;" d="M254 330L257 328L254 330z"/>
<path style="fill:#1d1f1d; stroke:none;" d="M257 328L258 329L257 328z"/>
<path style="fill:#72664b; stroke:none;" d="M258 328L259 329L258 328z"/>
<path style="fill:#b6b6b5; stroke:none;" d="M262 328L263 329L262 328z"/>
<path style="fill:#72664b; stroke:none;" d="M263 328L264 329L263 328z"/>
<path style="fill:#b6b6b5; stroke:none;" d="M270.333 328.667L270.667 329.333L270.333 328.667z"/>
<path style="fill:#72664b; stroke:none;" d="M281 328L282 329L281 328z"/>
<path style="fill:#b6b6b5; stroke:none;" d="M306 328L307 329L306 328M327 328L328 329L327 328M332 328L333 329L332 328z"/>
<path style="fill:#b99245; stroke:none;" d="M177 329L178 330L177 329z"/>
<path style="fill:#72664b; stroke:none;" d="M178 329L179 330L178 329z"/>
<path style="fill:#b99245; stroke:none;" d="M179 329L180 330L179 329z"/>
<path style="fill:#b6b6b5; stroke:none;" d="M180 329L181 330L180 329z"/>
<path style="fill:#72664b; stroke:none;" d="M184 329L185 330L184 329z"/>
<path style="fill:#b6b6b5; stroke:none;" d="M185 329L186 330L185 329M189.667 329.333L190.333 329.667L189.667 329.333z"/>
<path style="fill:#72664b; stroke:none;" d="M192 329L192 334L193 334L192 329z"/>
<path style="fill:#b6b6b5; stroke:none;" d="M203 329L203 330L207 330L203 329z"/>
<path style="fill:#72664b; stroke:none;" d="M207 329L207 334L208 334L207 329M230 329L231 330L230 329z"/>
<path style="fill:#b6b6b5; stroke:none;" d="M256.667 329.333L257.333 329.667L256.667 329.333z"/>
<path style="fill:#72664b; stroke:none;" d="M261 329L262 330L261 329z"/>
<path style="fill:#b99245; stroke:none;" d="M277 329L278 330L277 329z"/>
<path style="fill:#72664b; stroke:none;" d="M278.667 329.333L279.333 329.667L278.667 329.333z"/>
<path style="fill:#b6b6b5; stroke:none;" d="M280 329L281 330L280 329z"/>
<path style="fill:#1d1f1d; stroke:none;" d="M283.333 329.667L283.667 330.333L283.333 329.667z"/>
<path style="fill:#b6b6b5; stroke:none;" d="M284 329L285 330L284 329z"/>
<path style="fill:#b99245; stroke:none;" d="M297 329L298 330L297 329z"/>
<path style="fill:#72664b; stroke:none;" d="M306 329L307 330L306 329z"/>
<path style="fill:#b6b6b5; stroke:none;" d="M315 329L316 330L315 329z"/>
<path style="fill:#72664b; stroke:none;" d="M321.667 329.333L322.333 329.667L321.667 329.333M325 329L326 330L325 329z"/>
<path style="fill:#b6b6b5; stroke:none;" d="M326 329L327 330L326 329z"/>
<path style="fill:#72664b; stroke:none;" d="M332 329L333 330L332 329z"/>
<path style="fill:#b6b6b5; stroke:none;" d="M171 330L172 331L171 330M183 330L184 331L183 330z"/>
<path style="fill:#1d1f1d; stroke:none;" d="M184 330L185 331L184 330z"/>
<path style="fill:#72664b; stroke:none;" d="M248 330L248 333L249 333L248 330z"/>
<path style="fill:#b6b6b5; stroke:none;" d="M249.667 330.333L250.333 330.667L249.667 330.333z"/>
<path style="fill:#72664b; stroke:none;" d="M259 330L260 331L259 330M270 330L271 331L270 330z"/>
<path style="fill:#b6b6b5; stroke:none;" d="M282 330L283 331L282 330M305 330L306 331L305 330z"/>
<path style="fill:#72664b; stroke:none;" d="M315 330L316 331L315 330z"/>
<path style="fill:#b6b6b5; stroke:none;" d="M331 330L332 331L331 330z"/>
<path style="fill:#72664b; stroke:none;" d="M171 331L172 332L171 331M183.667 331.333L184.333 331.667L183.667 331.333z"/>
<path style="fill:#b6b6b5; stroke:none;" d="M231 331L232 332L231 331M262 331L263 332L262 331z"/>
<path style="fill:#72664b; stroke:none;" d="M263 331L264 332L263 331z"/>
<path style="fill:#b6b6b5; stroke:none;" d="M271 331L272 332L271 331z"/>
<path style="fill:#72664b; stroke:none;" d="M283 331L283 334L284 334L283 331z"/>
<path style="fill:#b99245; stroke:none;" d="M298 331L299 332L298 331z"/>
<path style="fill:#72664b; stroke:none;" d="M305 331L306 332L305 331M316 331L317 332L316 331z"/>
<path style="fill:#b6b6b5; stroke:none;" d="M172 332L173 333L172 332z"/>
<path style="fill:#72664b; stroke:none;" d="M182 332L183 333L182 332M231 332L232 333L231 332z"/>
<path style="fill:#b6b6b5; stroke:none;" d="M253 332L253 333L256 333L253 332z"/>
<path style="fill:#b99245; stroke:none;" d="M256.667 332.333L257.333 332.667L256.667 332.333z"/>
<path style="fill:#b6b6b5; stroke:none;" d="M258 332L259 333L258 332z"/>
<path style="fill:#72664b; stroke:none;" d="M264 332L265 333L264 332M281 332L282 333L281 332z"/>
<path style="fill:#b6b6b5; stroke:none;" d="M304 332L304 338L305 338L304 332z"/>
<path style="fill:#72664b; stroke:none;" d="M317 332L318 333L317 332z"/>
<path style="fill:#b6b6b5; stroke:none;" d="M329 332L330 333L329 332z"/>
<path style="fill:#b99245; stroke:none;" d="M173 333L174 334L173 333z"/>
<path style="fill:#b6b6b5; stroke:none;" d="M180 333L181 334L180 333z"/>
<path style="fill:#72664b; stroke:none;" d="M181 333L182 334L181 333M185 333L186 334L185 333M249.667 333.333L250.333 333.667L249.667 333.333M265 333L266 334L265 333z"/>
<path style="fill:#b6b6b5; stroke:none;" d="M273 333L274 334L273 333M279 333L280 334L279 333z"/>
<path style="fill:#72664b; stroke:none;" d="M280 333L281 334L280 333z"/>
<path style="fill:#b6b6b5; stroke:none;" d="M299 333L299 336L300 336L299 333z"/>
<path style="fill:#b99245; stroke:none;" d="M319 333L320 334L319 333z"/>
<path style="fill:#b6b6b5; stroke:none;" d="M327 333L328 334L327 333z"/>
<path style="fill:#72664b; stroke:none;" d="M328 333L329 334L328 333M175 334L175 335L179 335L175 334z"/>
<path style="fill:#b99245; stroke:none;" d="M265.333 334.667L265.667 335.333L265.333 334.667z"/>
<path style="fill:#72664b; stroke:none;" d="M275 334L275 335L278 335L275 334M322 334L322 335L326 335L322 334M256 335L256 336L259 336L256 335z"/>
<path style="fill:#b6b6b5; stroke:none;" d="M259 335L260 336L259 335M247 336L247 341L255 341L255 340L248 340L247 336z"/>
<path style="fill:#72664b; stroke:none;" d="M265 336L266 337L265 336z"/>
<path style="fill:#b99245; stroke:none;" d="M293 336L294 337L293 336z"/>
<path style="fill:#b6b6b5; stroke:none;" d="M297.667 336.333L298.333 336.667L297.667 336.333M293 337L294 341L295 341L293 337M263 338L264 339L263 338z"/>
<path style="fill:#b99245; stroke:none;" d="M304 338L305 339L304 338z"/>
<path style="fill:#b6b6b5; stroke:none;" d="M261 339L262 340L261 339z"/>
<path style="fill:#72664b; stroke:none;" d="M262 339L263 340L262 339M304 339L305 340L304 339z"/>
<path style="fill:#b99245; stroke:none;" d="M255 340L256 341L255 340z"/>
<path style="fill:#72664b; stroke:none;" d="M256 340L256 341L259 341L256 340M293 340L294 341L293 340z"/>
<path style="fill:#b99245; stroke:none;" d="M303 340L304 341L303 340z"/>
</svg>
