<?xml version="1.0" standalone="no"?>
<!DOCTYPE svg PUBLIC "-//W3C//DTD SVG 20010904//EN"
 "http://www.w3.org/TR/2001/REC-SVG-20010904/DTD/svg10.dtd">
<svg version="1.0" xmlns="http://www.w3.org/2000/svg"
 width="260.000000pt" height="260.000000pt" viewBox="0 0 260.000000 260.000000"
 preserveAspectRatio="xMidYMid meet">
<metadata>
Created by potrace 1.11, written by Peter Selinger 2001-2013
</metadata>
<g transform="translate(0.000000,260.000000) scale(0.100000,-0.100000)"
fill="#000000" stroke="none">
<path d="M980 2566 c0 -2 14 -20 30 -42 85 -107 109 -238 71 -388 -26 -100
-84 -221 -214 -449 -125 -218 -166 -303 -206 -422 -96 -290 -38 -531 183 -765
27 -28 50 -49 52 -47 3 2 0 17 -7 33 -6 16 -12 36 -14 44 -2 8 -8 35 -13 59
-14 59 -7 213 12 286 23 85 98 232 161 316 92 122 199 224 374 353 16 12 12 2
-19 -44 -76 -111 -112 -227 -114 -354 -1 -142 10 -192 104 -471 107 -316 110
-442 14 -600 -19 -32 -34 -59 -34 -60 0 -2 19 6 43 18 314 160 543 493 621
902 18 95 24 284 11 385 -53 437 -287 803 -675 1055 -106 70 -190 116 -298
163 -72 32 -82 35 -82 28z"/>
<path d="M1785 2180 c97 -101 92 -96 157 -183 95 -129 197 -333 229 -462 70
-280 71 -498 3 -754 -28 -102 -98 -271 -139 -333 -14 -21 -22 -38 -19 -38 4 0
50 32 103 72 216 161 359 334 416 503 27 80 28 85 31 195 4 174 -51 329 -179
504 -131 178 -398 409 -632 546 -37 21 -35 17 30 -50z"/>
<path d="M585 1635 c-211 -140 -315 -231 -417 -365 -208 -273 -163 -552 131
-803 148 -127 425 -281 655 -363 22 -8 38 -13 35 -11 -2 3 -31 26 -64 52 -211
169 -370 375 -436 569 -52 152 -66 348 -34 466 2 8 7 30 10 49 8 48 70 205
107 270 30 54 75 122 126 189 13 17 22 32 20 32 -3 0 -62 -38 -133 -85z"/>
</g>
</svg>
