<?xml version="1.0" encoding="utf-8"?>
<!-- Generator: Adobe Illustrator 21.0.2, SVG Export Plug-In . SVG Version: 6.00 Build 0)  -->
<svg version="1.1" id="Layer_2" xmlns="http://www.w3.org/2000/svg" xmlns:xlink="http://www.w3.org/1999/xlink" x="0px" y="0px"
	 viewBox="0 0 65 65" style="enable-background:new 0 0 65 65;" xml:space="preserve">
<style type="text/css">
	.st0{fill:#636466;}
	.st1{fill:#6F7173;}
</style>
<g>
	<path class="st0" d="M25.8,46.7c-2.8-1.2-4.5-4.9-4.4-8.2c0.1-4.3,3.6-10,3.6-9.3s-1.5,3.9,0.2,6c1.2,1.5,3.5-0.2,2.9-3.6
		c-1.2-6.8,0.5-10.6,1.9-13c1.1-2,3.2-4.2,3.3-3.9c0.2,0.3-3.2,6.8,0.6,16.4c0.8,2,1.4,4.2,1.9,6.4c0.4,2,0.7,5.3-1.4,7.5
		C31.5,47.8,28.6,48,25.8,46.7z"/>
	<path class="st1" d="M37.5,17.1c0,0-4,2.7-3.2,8.8c0.7,5.5,2.7,7.8,3.4,10.8c0.9,3.8,0.2,6.8-1,8.4c-0.6,0.8-2,1.7-1.3,1.8
		c3.6,0.4,6.6-1.1,8.1-5.2c1.4-3.8,0.5-8.3-2.3-10.9c-3.1-3.2-4-4.3-4.7-7.5C36.1,21.1,36.4,18.8,37.5,17.1z"/>
</g>
<path class="st0" d="M32.6,63.9c-2.1,0-4.2-0.7-5.8-2.4l-23-23c-1.6-1.6-2.4-3.6-2.4-5.8s0.9-4.3,2.4-5.8l23-23
	c3.2-3.2,8.5-3.2,11.7,0l0,0l23,23c1.6,1.6,2.4,3.6,2.4,5.8S63,37,61.5,38.5l-23.1,23C36.8,63.2,34.7,63.9,32.6,63.9z M32.6,3.2
	c-1.7,0-3.4,0.6-4.7,1.9L5,28.1c-2.6,2.6-2.6,6.7,0,9.3l23,23c2.6,2.6,6.7,2.6,9.3,0l23-23c2.6-2.6,2.6-6.7,0-9.3l-23-22.9
	C36,3.9,34.3,3.2,32.6,3.2z"/>
</svg>
